Coordinates
version=1
nRows=27
nColumns=12
inDegrees=yes

Units are S.I. units (second, meters, Newtons, ...)
Angles are in degrees

endheader
time	SC_y	SC_z	SC_x	AC_y	AC_z	AC_x	GH_y	GH_z	GH_yy	EL_x	PS_y
       0.0              -15.63          27.62          3.345          46.71         -18.46         0.4025          13.47         -7.325         -131.0          114.3           63.4
   0.01825              -15.63          27.62          3.347          46.71         -18.46         0.4024          13.48         -7.313         -131.0          114.3           63.4
    0.0365              -15.63          27.62          3.349          46.71         -18.45         0.4024           13.5           -7.3         -131.0          114.3          63.41
   0.05475              -15.64          27.62          3.351          46.71         -18.45         0.4023          13.52         -7.286         -131.0          114.3          63.41
     0.073              -15.64          27.61          3.354          46.71         -18.45         0.4023          13.53         -7.271         -131.0          114.2          63.42
   0.09125              -15.65          27.61          3.357          46.72         -18.45         0.4022          13.55         -7.255         -131.0          114.2          63.42
    0.1095              -15.65          27.61           3.36          46.72         -18.45         0.4021          13.58         -7.239         -131.0          114.2          63.43
    0.1277              -15.66          27.61          3.363          46.72         -18.45         0.4021           13.6         -7.221         -131.0          114.2          63.44
     0.146              -15.66          27.61          3.366          46.72         -18.45          0.402          13.62         -7.201         -131.0          114.2          63.44
    0.1642              -15.67           27.6           3.37          46.73         -18.44         0.4019          13.65         -7.181         -131.0          114.2          63.45
    0.1825              -15.68           27.6          3.374          46.73         -18.44         0.4018          13.68         -7.159         -131.0          114.2          63.46
    0.2007              -15.68           27.6          3.378          46.73         -18.44         0.4018          13.71         -7.135         -131.0          114.2          63.47
     0.219              -15.69           27.6          3.382          46.74         -18.44         0.4017          13.74         -7.109         -131.0          114.2          63.48
    0.2372               -15.7          27.59          3.387          46.74         -18.44         0.4016          13.77         -7.082         -130.9          114.1          63.49
    0.2555              -15.71          27.59          3.393          46.74         -18.43         0.4014          13.81         -7.052         -130.9          114.1           63.5
    0.2737              -15.72          27.58          3.398          46.75         -18.43         0.4013          13.85         -7.019         -130.9          114.1          63.51
     0.292              -15.73          27.58          3.404          46.75         -18.43         0.4012           13.9         -6.984         -130.9          114.1          63.52
    0.3102              -15.74          27.58          3.411          46.76         -18.43         0.4011          13.95         -6.945         -130.9          114.1          63.54
    0.3285              -15.75          27.57          3.419          46.76         -18.42         0.4009           14.0         -6.903         -130.9          114.0          63.55
    0.3467              -15.77          27.56          3.427          46.77         -18.42         0.4007          14.06         -6.857         -130.9          114.0          63.57
     0.365              -15.78          27.56          3.436          46.78         -18.41         0.4005          14.12         -6.807         -130.8          114.0          63.59
    0.3832               -15.8          27.55          3.445          46.79         -18.41         0.4003          14.19         -6.751         -130.8          114.0          63.61
    0.4015              -15.82          27.54          3.456          46.79          -18.4         0.4001          14.27          -6.69         -130.8          113.9          63.63
    0.4197              -15.84          27.54          3.468           46.8          -18.4         0.3999          14.36         -6.621         -130.8          113.9          63.66
     0.438              -15.86          27.53          3.481          46.81         -18.39         0.3996          14.45         -6.546         -130.8          113.8          63.69
    0.4562              -15.88          27.52          3.496          46.83         -18.39         0.3993          14.56         -6.461         -130.7          113.8          63.72
    0.4745              -15.91           27.5          3.513          46.84         -18.38         0.3989          14.68         -6.367         -130.7          113.7          63.75
